<?xml version="1.0" encoding="iso-8859-1"?>
<!-- Generator: Adobe Illustrator 16.0.0, SVG Export Plug-In . SVG Version: 6.00 Build 0)  -->
<!DOCTYPE svg PUBLIC "-//W3C//DTD SVG 1.1//EN" "http://www.w3.org/Graphics/SVG/1.1/DTD/svg11.dtd">
<svg version="1.1" id="Capa_1" xmlns="http://www.w3.org/2000/svg" xmlns:xlink="http://www.w3.org/1999/xlink" x="0px" y="0px"
	 width="460.731px" height="460.731px" viewBox="0 0 460.731 460.731" style="enable-background:new 0 0 460.731 460.731;"
	 xml:space="preserve">
<g>
	<g>
		<polygon points="165.72,64.159 295.016,64.159 318.278,0.006 142.461,0.006 		"/>
		<path d="M69.702,64.159l82.457,190.631c17.731-15.124,39.83-25.215,64.143-28.126L157.375,64.15L134.115,0L69.702,64.159z"/>
		<path d="M326.634,0.006l-23.259,64.153l-58.894,162.387c24.346,2.75,46.519,12.708,64.344,27.7l82.204-190.086L326.634,0.006z"/>
		<path d="M230.792,460.731c62.736,0,113.583-50.851,113.583-113.566c0-31.081-12.499-59.202-32.713-79.716
			c-0.974-0.981-2.02-1.903-3.029-2.861c-1.014-0.949-2.04-1.883-3.065-2.797c-17.421-15.257-39.47-25.339-63.83-27.659
			c-1.351-0.124-2.737-0.124-4.1-0.209c-1.365-0.076-2.721-0.176-4.098-0.208c-0.916-0.012-1.811-0.137-2.739-0.137
			c-1.208,0-2.376,0.137-3.577,0.185c-1.376,0.028-2.741,0.116-4.11,0.2c-1.356,0.093-2.745,0.093-4.089,0.221
			c-24.327,2.509-46.294,12.771-63.6,28.168c-1.04,0.918-2.076,1.832-3.071,2.798c-1.012,0.966-2.028,1.932-3.002,2.941
			c-19.859,20.449-32.138,48.313-32.138,79.074C117.214,409.881,168.07,460.731,230.792,460.731z"/>
	</g>
</g>
<g>
</g>
<g>
</g>
<g>
</g>
<g>
</g>
<g>
</g>
<g>
</g>
<g>
</g>
<g>
</g>
<g>
</g>
<g>
</g>
<g>
</g>
<g>
</g>
<g>
</g>
<g>
</g>
<g>
</g>
</svg>
